<svg width="24" height="24" viewBox="0 0 24 24" fill="none" xmlns="http://www.w3.org/2000/svg">
<path d="M12 21.6C13.5 21.6 14.7752 21.0752 15.8256 20.0256C16.876 18.976 17.4008 17.7008 17.4 16.2C17.3992 14.6992 16.8744 13.4244 15.8256 12.3756C14.7768 11.3268 13.5016 10.8016 12 10.8C10.4984 10.7984 9.2236 11.3236 8.1756 12.3756C7.1276 13.4276 6.6024 14.7024 6.6 16.2C6.5976 17.6976 7.1228 18.9728 8.1756 20.0256C9.2284 21.0784 10.5032 21.6032 12 21.6ZM8.49 9.24C8.89 9.02 9.3152 8.8452 9.7656 8.7156C10.216 8.586 10.6708 8.5008 11.13 8.46L8.1 2.4H5.1L8.49 9.24ZM15.51 9.24L18.93 2.4H15.9L13.35 7.5L13.92 8.64C14.2 8.72 14.47 8.8052 14.73 8.8956C14.99 8.986 15.25 9.1008 15.51 9.24ZM5.28 20.16C4.94 19.58 4.6748 18.9552 4.4844 18.2856C4.294 17.616 4.1992 16.9208 4.2 16.2C4.2008 15.4792 4.296 14.7844 4.4856 14.1156C4.6752 13.4468 4.94 12.8216 5.28 12.24C4.44 12.52 3.75 13.0152 3.21 13.7256C2.67 14.436 2.4 15.2608 2.4 16.2C2.4 17.1392 2.67 17.9644 3.21 18.6756C3.75 19.3868 4.44 19.8816 5.28 20.16ZM18.72 20.16C19.56 19.88 20.25 19.3852 20.79 18.6756C21.33 17.966 21.6 17.1408 21.6 16.2C21.6 15.2592 21.33 14.4344 20.79 13.7256C20.25 13.0168 19.56 12.5216 18.72 12.24C19.06 12.82 19.3252 13.4452 19.5156 14.1156C19.706 14.786 19.8008 15.4808 19.8 16.2C19.7992 16.9192 19.704 17.6144 19.5144 18.2856C19.3248 18.9568 19.06 19.5816 18.72 20.16ZM12 24C11.2 24 10.4352 23.8848 9.7056 23.6544C8.976 23.424 8.3008 23.1096 7.68 22.7112C7.5 22.7512 7.32 22.7764 7.14 22.7868C6.96 22.7972 6.77 22.8016 6.57 22.8C4.75 22.8 3.2 22.16 1.92 20.88C0.64 19.6 0 18.05 0 16.23C0 14.49 0.58 13 1.74 11.76C2.9 10.52 4.33 9.83 6.03 9.69L1.2 0H9.6L12 4.8L14.4 0H22.8L18 9.63C19.7 9.79 21.1252 10.49 22.2756 11.73C23.426 12.97 24.0008 14.46 24 16.2C24 18.04 23.36 19.6 22.08 20.88C20.8 22.16 19.24 22.8 17.4 22.8C17.22 22.8 17.0352 22.7952 16.8456 22.7856C16.656 22.776 16.4708 22.7508 16.29 22.71C15.67 23.11 15 23.4252 14.28 23.6556C13.56 23.886 12.8 24.0008 12 24ZM9.78 19.5L10.62 16.77L8.4 15.18H11.13L12 12.3L12.87 15.18H15.6L13.38 16.77L14.22 19.5L12 17.82L9.78 19.5Z" fill="white"/>
</svg>
