<svg width="26" height="34" viewBox="0 0 26 34" fill="none" xmlns="http://www.w3.org/2000/svg">
<path d="M13.0009 2.33261C10.7399 2.33254 8.53377 3.02918 6.68283 4.32769C4.83188 5.62621 3.42602 7.46353 2.65658 9.58958C1.88714 11.7156 1.79151 14.0271 2.3827 16.2095C2.97388 18.3918 4.22318 20.339 5.96053 21.786C7.4126 22.9975 8.60066 24.6417 8.60066 26.5338H17.4011C17.4011 24.6417 18.5892 22.9975 20.0412 21.7845C21.778 20.3374 23.0268 18.3903 23.6176 16.2083C24.2085 14.0262 24.1127 11.715 23.3433 9.58933C22.574 7.46362 21.1684 5.62656 19.3178 4.32812C17.4672 3.02968 15.2615 2.3329 13.0009 2.33261Z" stroke="white" stroke-width="2.93348"/>
<path d="M17.4005 26.5338H8.6001V29.4673C8.6001 30.0508 8.83189 30.6104 9.24449 31.023C9.6571 31.4356 10.2167 31.6674 10.8002 31.6674H15.2004C15.7839 31.6674 16.3435 31.4356 16.7561 31.023C17.1687 30.6104 17.4005 30.0508 17.4005 29.4673V26.5338Z" stroke="white" stroke-width="2.93348" stroke-linejoin="round"/>
<path d="M10.0669 11.1331C10.0669 9.64726 11.3796 8.19958 13.0004 8.19958C14.6211 8.19958 15.9339 9.40231 15.9339 10.8881C15.9339 11.4235 15.7637 11.9222 15.4689 12.3417C14.5918 13.5913 13.0004 14.7823 13.0004 16.2667" stroke="white" stroke-width="2.93348" stroke-linecap="round"/>
<path d="M12.9893 19.9335H13.0025" stroke="white" stroke-width="2.93348" stroke-linecap="round" stroke-linejoin="round"/>
</svg>
