<svg width="125" height="111" viewBox="0 0 125 111" fill="none" xmlns="http://www.w3.org/2000/svg">
<path d="M102.489 35.7911C101.168 35.338 99.8363 34.9182 98.4943 34.532C98.7197 33.6109 98.9273 32.7009 99.1115 31.8069C102.136 17.1261 100.159 5.29897 93.4057 1.40492C86.9309 -2.32818 76.342 1.56442 65.6479 10.8715C64.5939 11.7903 63.5634 12.7357 62.5572 13.7067C61.8836 13.061 61.1981 12.4279 60.5011 11.8076C49.2931 1.85628 38.0589 -2.33787 31.3131 1.56733C24.8442 5.31206 22.9287 16.4304 25.6514 30.3437C25.9223 31.7216 26.2282 33.0925 26.5687 34.4549C24.9785 34.9068 23.4441 35.3877 21.9756 35.8997C8.83506 40.4812 0.443359 47.6609 0.443359 55.1082C0.443359 62.7998 9.45224 70.5147 23.1386 75.1927C24.2482 75.5703 25.3671 75.9203 26.4941 76.2423C26.1282 77.7097 25.8032 79.1871 25.5196 80.6726C22.9239 94.3444 24.9509 105.2 31.4023 108.921C38.0657 112.764 49.2495 108.814 60.1389 99.2949C61.0219 98.5209 61.8855 97.7251 62.7288 96.9081C63.8185 97.9595 64.9372 98.9803 66.0838 99.9693C76.6324 109.046 87.0502 112.711 93.4954 108.98C100.152 105.126 102.316 93.4645 99.5071 79.2763C99.2858 78.1648 99.0377 77.0587 98.7629 75.9592C99.5483 75.7265 100.319 75.487 101.071 75.2378C115.299 70.5239 124.557 62.9026 124.557 55.1082C124.557 47.6337 115.894 40.4056 102.489 35.7911ZM99.4033 70.2054C98.7239 70.4297 98.029 70.647 97.3186 70.8575C95.7478 65.8847 93.6282 60.5973 91.0339 55.1338C93.5094 49.8009 95.5476 44.5808 97.0743 39.6405C98.344 40.008 99.5759 40.3954 100.764 40.8041C112.249 44.7583 119.255 50.6037 119.255 55.1082C119.255 59.9059 111.689 66.1344 99.4033 70.2054ZM94.306 80.3061C95.5481 86.5796 95.725 92.252 94.9023 96.6866C94.1634 100.671 92.677 103.328 90.8386 104.392C86.9275 106.656 78.563 103.713 69.542 95.9501C68.4756 95.0306 67.4349 94.0816 66.4212 93.1043C69.9187 89.2795 73.4137 84.8333 76.8249 79.8949C82.825 79.3626 88.4935 78.4919 93.634 77.3036C93.8877 78.3256 94.1117 79.3264 94.306 80.3061ZM42.7563 104.001C38.935 105.35 35.8913 105.389 34.0514 104.328C30.1365 102.07 28.509 93.3535 30.7289 81.6616C30.9928 80.28 31.295 78.906 31.6351 77.5411C36.7189 78.6659 42.3461 79.4746 48.3603 79.9623C51.7947 84.7945 55.3906 89.2359 59.0146 93.1251C58.2444 93.8703 57.4561 94.5965 56.6502 95.3029C51.8345 99.5121 47.0091 102.499 42.7563 104.001ZM24.8539 70.1758C18.8019 68.1071 13.804 65.4188 10.3782 62.4851C7.29965 59.8492 5.74581 57.2317 5.74581 55.1082C5.74581 50.5887 12.4833 44.8242 23.7209 40.9064C25.0847 40.4313 26.512 39.9828 27.9931 39.562C29.5465 44.6138 31.5837 49.8959 34.0422 55.2371C31.5517 60.6574 29.4854 66.0238 27.917 71.1353C26.8883 70.8405 25.8669 70.5206 24.8539 70.1758ZM30.855 29.3251C28.5225 17.4049 30.0715 8.41295 33.9699 6.15613C38.1219 3.7524 47.3034 7.17958 56.9808 15.7725C57.6119 16.3341 58.2327 16.907 58.843 17.4912C55.2369 21.3634 51.674 25.7718 48.2701 30.5754C42.4329 31.1165 36.8454 31.9853 31.7083 33.1493C31.3917 31.8821 31.1072 30.6066 30.855 29.3251ZM84.3919 42.5456C83.1785 40.4497 81.9201 38.3802 80.6176 36.3384C84.5776 36.8393 88.3718 37.5039 91.9347 38.3165C90.8652 41.7451 89.532 45.3294 87.9626 49.0043C86.8155 46.8278 85.6251 44.6745 84.3919 42.5456ZM62.5596 21.281C65.0051 23.9305 67.4544 26.8884 69.8634 30.0979C64.9764 29.867 60.0813 29.8661 55.1943 30.095C57.6058 26.915 60.0759 23.9611 62.5596 21.281ZM40.5872 42.5814C39.3695 44.6932 38.2013 46.8331 37.0834 48.9995C35.5398 45.3376 34.2187 41.7369 33.1399 38.2598C36.681 37.4676 40.4573 36.8199 44.3921 36.3283C43.0751 38.3825 41.8065 40.4678 40.5872 42.5814ZM44.505 74.2647C40.4398 73.811 36.6069 73.1967 33.0667 72.4258C34.1624 68.8867 35.5126 65.2093 37.0897 61.469C38.212 63.6369 39.3851 65.7781 40.6081 67.8909C41.8657 70.0628 43.1679 72.1902 44.505 74.2647ZM62.706 89.3086C60.1928 86.5975 57.6862 83.598 55.2384 80.372C57.615 80.4651 60.0376 80.5126 62.5 80.5126C65.0298 80.5126 67.5305 80.4559 69.9919 80.3463C67.5751 83.6305 65.135 86.6344 62.706 89.3086ZM88.0126 61.2779C89.6716 65.0595 91.0698 68.7175 92.18 72.196C88.5817 73.0173 84.6964 73.6786 80.6026 74.1697C81.9145 72.0901 83.1848 69.9846 84.4128 67.8545C85.6614 65.6893 86.8616 63.4966 88.0126 61.2779ZM79.8201 65.2054C77.9399 68.4713 75.9542 71.6752 73.8661 74.8121C70.0833 75.0802 66.2922 75.2133 62.5 75.2111C58.6375 75.2111 54.8806 75.0909 51.2629 74.8562C49.12 71.7267 47.0964 68.5172 45.1964 65.2345C43.305 61.9694 41.539 58.6336 39.9012 55.2342C41.5349 51.8341 43.296 48.4966 45.1809 45.229L45.1804 45.2295C47.0643 41.9609 49.0717 38.7651 51.1984 35.649C54.8893 35.3698 58.6743 35.2243 62.4995 35.2243C66.3422 35.2243 70.1325 35.3712 73.8224 35.6524C75.9277 38.7638 77.9223 41.9486 79.8027 45.2009C81.6935 48.4615 83.4779 51.7826 85.1531 55.1591C83.4951 58.57 81.7163 61.9209 79.8201 65.2054ZM90.7576 5.99759C94.9134 8.39453 96.5298 18.0603 93.9186 30.7359C93.7512 31.5452 93.5653 32.3678 93.3611 33.2036C88.2113 32.0148 82.6199 31.131 76.7658 30.5817C73.3556 25.7253 69.8217 21.3101 66.2743 17.4878C67.204 16.5916 68.1559 15.7187 69.1289 14.8698C78.292 6.89596 86.8558 3.74756 90.7576 5.99759ZM62.5 44.0252C68.6208 44.0252 73.5829 48.9873 73.5829 55.1082C73.5829 61.229 68.6208 66.1911 62.5 66.1911C56.3792 66.1911 51.4171 61.229 51.4171 55.1082C51.4171 48.9873 56.3792 44.0252 62.5 44.0252Z" fill="#00D8FF"/>
</svg>
